<svg width="64" height="64" viewBox="0 0 64 64" fill="none" xmlns="http://www.w3.org/2000/svg">
<path fill-rule="evenodd" clip-rule="evenodd" d="M11.6364 0C8.55021 0 5.59045 1.22597 3.40821 3.40821C1.22597 5.59045 0 8.55021 0 11.6364V52.3636C0 55.4498 1.22597 58.4095 3.40821 60.5918C5.59045 62.774 8.55021 64 11.6364 64H52.3636C55.4498 64 58.4095 62.774 60.5918 60.5918C62.774 58.4095 64 55.4498 64 52.3636V11.6364C64 8.55021 62.774 5.59045 60.5918 3.40821C58.4095 1.22597 55.4498 0 52.3636 0H11.6364ZM44.9396 22.3185C45.7112 22.3185 46.4511 22.0121 46.9967 21.4665C47.5422 20.9209 47.8487 20.181 47.8487 19.4095C47.8487 18.6379 47.5422 17.898 46.9967 17.3524C46.4511 16.8069 45.7112 16.5004 44.9396 16.5004C44.1681 16.5004 43.4282 16.8069 42.8826 17.3524C42.337 17.898 42.0305 18.6379 42.0305 19.4095C42.0305 20.181 42.337 20.9209 42.8826 21.4665C43.4282 22.0121 44.1681 22.3185 44.9396 22.3185ZM47.8487 46.464V25.4516H42.0305V46.464H47.8487ZM11.2756 46.464L20.5673 19.9098V17.9898H27.9884L38.2691 46.464H31.8924L29.472 39.8109H19.4124L17.1578 46.464H11.2756ZM21.0065 34.1498H27.8225L24.416 23.0458L21.0065 34.1498Z" fill="#555E66"/>
</svg>
