<svg width="175" height="64" viewBox="0 0 175 64" fill="none" xmlns="http://www.w3.org/2000/svg">
<path d="M50.6933 29.8201L48.4262 39.8473C48.339 40.3705 47.7287 40.8065 47.1183 40.8065H44.3281C44.3281 40.8065 43.9794 40.9809 43.8922 41.1552C41.3636 49.7874 37.8758 55.8037 33.3418 59.3787C29.4181 62.4304 24.6224 63.8255 18.2573 63.8255C12.5025 63.8255 8.66601 61.9945 5.35266 58.3324C0.992986 53.5367 -0.750884 45.6021 0.295437 36.098C2.21369 18.2234 11.5434 0.174316 29.4181 0.174316C34.824 0.174316 39.0965 1.831 42.0611 5.14435C45.2001 8.71928 46.7695 14.0381 46.7695 21.0136C46.7695 21.6239 46.2464 22.1471 45.636 22.1471H32.557C32.121 22.1471 31.6851 21.7111 31.6851 21.2751C31.5979 16.4795 30.1156 14.1253 27.3254 14.1253C22.2682 14.1253 19.3908 20.9264 17.8213 24.6757C15.6415 29.9073 14.508 35.6621 14.7696 41.4168C14.8567 44.0326 15.2927 47.7819 17.8213 49.3514C20.0884 50.7465 23.2273 49.7874 25.1456 48.3051C27.0638 46.8228 28.6333 44.1198 29.2437 41.7656C29.3309 41.4168 29.3309 41.1552 29.2437 41.0681C29.0927 40.9549 28.9092 40.8937 28.7205 40.8937H25.32C25.32 40.8937 24.6224 40.7193 24.3608 40.4577C24.2709 40.3505 24.2082 40.2232 24.1778 40.0866C24.1475 39.95 24.1504 39.8082 24.1864 39.673L26.4535 29.7329C26.5407 29.2097 27.0638 28.861 27.587 28.7738C28.1101 28.6866 49.6469 28.7738 49.6469 28.7738H49.8213C50.4317 28.7738 50.7804 29.3841 50.7804 29.9945L50.6933 29.8201Z" fill="#555E66"/>
<path d="M88.6224 18.3978C88.6224 19.0082 88.0992 19.5313 87.4889 19.5313H75.4562C74.6714 19.5313 73.9739 18.921 73.9739 18.1362C73.9739 14.6485 72.7532 12.9046 70.3117 12.9046C66.6496 12.9046 66.2137 14.4741 66.2137 17.0899C66.2137 20.0545 67.8703 22.7575 72.666 27.3787C78.9439 33.3079 81.4725 38.5395 81.3853 45.515C81.2109 56.7629 73.5379 64 61.9412 64C56.012 64 51.478 62.4305 48.5134 59.2916C45.4616 56.1526 44.0665 51.4441 44.3281 45.4278C44.3281 44.8174 44.8513 44.2943 45.4616 44.2943H57.9303C57.9303 44.2943 58.6278 44.4687 58.8022 44.7302C58.9766 44.9918 59.0638 45.2534 59.0638 45.515C58.8894 47.6948 59.3254 49.2643 60.1973 50.2234C60.7205 50.8338 61.5052 51.0954 62.4643 51.0954C64.7314 51.0954 66.1265 49.4387 66.1265 46.6485C66.1265 44.2071 65.4289 42.0272 61.1564 37.6676C55.6632 32.3488 50.7804 26.8556 50.9548 18.2234C51.042 13.1662 53.0474 8.63215 56.5352 5.3188C60.2845 1.83106 65.3417 0 71.2709 0C77.2 0 81.7341 1.74387 84.6115 5.05722C87.4017 8.19618 88.7096 12.7302 88.6224 18.485V18.3978ZM126.028 61.8202V2.17984C126.116 1.56948 125.592 1.04632 124.982 1.04632H106.323C105.712 1.04632 105.451 1.56948 105.276 1.91826L78.2464 61.3842C77.9848 62.0817 78.5079 62.8665 79.2927 62.8665H92.3717C93.0692 62.8665 93.5052 62.6921 93.7668 62.1689L96.3826 55.9782C96.7314 55.1935 96.7314 55.1063 97.6905 55.1063H110.159C111.031 55.1063 111.031 55.1063 111.031 55.9782L110.77 61.733C110.77 62.3433 111.293 62.8665 111.903 62.8665H125.069C125.069 62.8665 125.68 62.6921 125.941 62.5177C126.116 62.3433 126.203 61.9945 126.203 61.733L126.028 61.8202ZM102.922 41.94H102.661C102.486 41.94 102.399 41.7657 102.399 41.5913C102.399 41.5041 102.399 41.4169 102.486 41.2425L111.816 18.1362C111.816 18.1362 111.99 17.7003 112.077 17.4387C112.252 17.0899 112.426 17.0899 112.513 17.3515L111.467 41.0681C111.38 41.9401 111.38 42.0272 110.508 42.0272H103.009V41.94H102.922ZM152.535 1.04632H142.595C142.072 1.04632 141.462 1.3079 141.374 1.91826L127.598 61.733C127.598 61.733 127.598 62.2561 127.772 62.5177C128.034 62.7793 128.383 62.9537 128.731 62.9537H141.113C141.81 62.9537 142.246 62.6049 142.334 62.0817L143.816 55.2807C143.903 54.7575 143.816 54.3215 143.293 54.0599C143.031 53.9728 142.857 53.7984 142.595 53.7112L140.415 52.5777L138.323 51.4441L137.538 51.0082C137.538 51.0082 137.276 50.8338 137.364 50.6594C137.364 50.3978 137.538 50.2234 137.799 50.2234H144.601C146.606 50.2234 148.699 50.1362 150.617 49.7875C164.655 47.1717 173.985 35.9237 174.246 20.6648C174.508 7.58583 167.184 0.959125 152.622 0.959125L152.535 1.04632ZM149.135 36.6213H148.176L152.099 19.357C152.186 18.8338 152.186 18.5722 151.925 18.3978C151.489 18.2234 145.821 15.1717 145.821 15.1717C145.647 15.1717 145.56 14.9973 145.647 14.8229C145.647 14.5613 145.821 14.3869 146.083 14.3869H155.151C157.941 14.3869 159.511 17.0027 159.423 21.2752C159.336 28.6866 155.761 36.4469 149.222 36.7084L149.135 36.6213Z" fill="#555E66"/>
</svg>
