<svg width="170" height="64" viewBox="0 0 170 64" fill="none" xmlns="http://www.w3.org/2000/svg">
<path d="M0 62.6012V0H37.9454V9.09289H9.61741V27.4537H35.1475V36.5466H9.61741V62.6012H0ZM41.8731 62.6012V0H51.3158V62.6012H41.8731ZM78.8915 64C74.2867 64 70.2359 62.951 66.7385 60.8526C63.2413 58.7543 60.5018 55.9272 58.5199 52.3718C56.5382 48.7579 55.5472 44.736 55.5472 40.306C55.5472 35.8762 56.5382 31.8835 58.5199 28.328C60.5018 24.7142 63.2413 21.8579 66.7385 19.7596C70.2359 17.6613 74.2867 16.612 78.8915 16.612C83.4379 16.612 87.4599 17.6904 90.957 19.8471C94.4544 21.9455 97.194 24.7722 99.1756 28.328C101.158 31.8835 102.149 35.8762 102.149 40.306C102.149 44.736 101.158 48.7579 99.1756 52.3718C97.194 55.9272 94.4544 58.7543 90.957 60.8526C87.4599 62.951 83.4379 64 78.8915 64ZM78.8915 55.3444C81.3396 55.3444 83.613 54.7615 85.7113 53.5958C87.8096 52.3718 89.4999 50.6521 90.7823 48.4373C92.123 46.164 92.7931 43.4536 92.7931 40.306C92.7931 37.1586 92.123 34.4774 90.7823 32.2624C89.4999 29.989 87.8096 28.2696 85.7113 27.1039C83.613 25.8799 81.3396 25.2678 78.8915 25.2678C76.4434 25.2678 74.1411 25.8799 71.9845 27.1039C69.8861 28.2696 68.1664 29.989 66.826 32.2624C65.5436 34.4774 64.9024 37.1586 64.9024 40.306C64.9024 43.4536 65.5436 46.164 66.826 48.4373C68.1664 50.6521 69.9153 52.3718 72.072 53.5958C74.2284 54.7615 76.5017 55.3444 78.8915 55.3444ZM114.971 62.6012L100.719 18.011H110.949L120.129 50.0984H120.479L130.534 18.011H140.239L150.293 50.0984H150.643L159.823 18.011H169.878L155.539 62.6012H145.659L135.342 30.3388H134.993L124.763 62.6012H114.971Z" fill="#555E66"/>
</svg>
