<svg width="43" height="64" viewBox="0 0 43 64" fill="none" xmlns="http://www.w3.org/2000/svg">
<path opacity="0.6" d="M21.3371 0H10.6677C7.83847 0 5.12509 1.12392 3.12451 3.12451C1.12392 5.12509 0 7.83847 0 10.6677C0 13.497 1.12392 16.2104 3.12451 18.211C5.12509 20.2115 7.83847 21.3355 10.6677 21.3355H21.3371V0Z" fill="#555E66"/>
<path opacity="0.4" d="M21.3369 21.3354H10.6676C7.83876 21.3354 5.12579 22.4592 3.1255 24.4595C1.12521 26.4598 0.00146484 29.1727 0.00146484 32.0016C0.00146484 34.8304 1.12521 37.5434 3.1255 39.5437C5.12579 41.544 7.83876 42.6677 10.6676 42.6677H21.3369V21.3354Z" fill="#555E66"/>
<path d="M42.6694 32.0017C42.6694 34.831 41.5455 37.5443 39.5449 39.5449C37.5443 41.5455 34.831 42.6694 32.0017 42.6694C29.1725 42.6694 26.4591 41.5455 24.4585 39.5449C22.4579 37.5443 21.334 34.831 21.334 32.0017C21.334 29.1725 22.4579 26.4591 24.4585 24.4585C26.4591 22.4579 29.1725 21.334 32.0017 21.334C34.831 21.334 37.5443 22.4579 39.5449 24.4585C41.5455 26.4591 42.6694 29.1725 42.6694 32.0017Z" fill="#555E66"/>
<path opacity="0.2" d="M10.6676 42.6712H21.3369V53.3373C21.3363 55.4466 20.7103 57.5083 19.538 59.2619C18.3657 61.0154 16.6999 62.382 14.751 63.1889C12.8022 63.9958 10.6579 64.2068 8.58913 63.7951C6.5204 63.3835 4.62017 62.3677 3.12868 60.8762C1.63719 59.3847 0.621403 57.4845 0.209746 55.4157C-0.201911 53.347 0.00904496 51.2027 0.815942 49.2538C1.62284 47.305 2.98945 45.6391 4.74299 44.4669C6.49654 43.2946 8.55828 42.6718 10.6676 42.6712Z" fill="#555E66"/>
<path opacity="0.8" d="M21.334 0H32.0001C34.8294 0 37.5427 1.12392 39.5433 3.12451C41.5439 5.12509 42.6678 7.83847 42.6678 10.6677C42.6678 13.497 41.5439 16.2104 39.5433 18.211C37.5427 20.2115 34.8294 21.3355 32.0001 21.3355H21.334V0Z" fill="#555E66"/>
</svg>
