<svg width="61" height="64" viewBox="0 0 61 64" fill="none" xmlns="http://www.w3.org/2000/svg">
<path d="M21.8175 40.6692L21.9185 40.7184L22.0986 40.8053C22.3281 40.9152 22.56 41.0224 22.7941 41.1271L22.9412 41.1925C23.2095 41.3101 23.4801 41.4226 23.7529 41.5301L23.9507 41.6076C24.2037 41.7063 24.4589 41.801 24.7164 41.8918L24.8127 41.9247C25.0948 42.0231 25.3795 42.1147 25.6668 42.2042L25.8736 42.2654C26.1656 42.3539 26.454 42.4591 26.7554 42.5151C45.8863 46.0033 51.4428 31.0184 51.4428 31.0184C46.7755 37.0988 38.4912 38.7029 30.6419 36.9172C30.3446 36.8502 30.0557 36.7571 29.7658 36.6712L29.5475 36.6053C29.2648 36.5186 28.9836 36.4271 28.7039 36.3311L28.5882 36.2892C28.339 36.2009 28.091 36.109 27.8445 36.0134L27.6362 35.9317C27.3665 35.8256 27.0988 35.7143 26.8334 35.5978L26.6727 35.5267C26.4458 35.4243 26.22 35.3193 25.9955 35.2116L25.7992 35.1174C25.6234 35.0316 25.4491 34.94 25.2754 34.8505L24.9258 34.6673C24.7145 34.5537 24.5053 34.4363 24.2982 34.3151L24.0863 34.1968C23.811 34.0339 23.5383 33.8668 23.2683 33.6954L23.0479 33.5489C22.8519 33.4231 22.6578 33.2942 22.466 33.1621L22.2786 33.0302C22.0937 32.8994 21.9103 32.7668 21.7286 32.6325L21.4847 32.4477C21.3176 32.3208 21.1522 32.1917 20.9885 32.0604L20.7671 31.8825C20.5588 31.7115 20.3526 31.5379 20.1485 31.3618L20.081 31.3047C19.8607 31.1118 19.6437 30.9151 19.43 30.7149L19.2468 30.5385C19.0884 30.3885 18.9326 30.236 18.7794 30.0811L18.5962 29.8979C18.402 29.699 18.211 29.4969 18.0232 29.2919L17.9949 29.2615C17.7969 29.0447 17.603 28.8242 17.4135 28.6L17.2612 28.4189C17.1195 28.2487 16.9801 28.0763 16.843 27.9018L16.6896 27.7113C16.5255 27.4993 16.3645 27.2849 16.2066 27.0681C11.8491 21.1238 10.2832 12.9254 13.7662 6.19238L10.6789 10.1082C6.7228 15.7934 7.21581 23.1906 10.2372 29.2322L10.4585 29.6619L10.6004 29.934L10.6883 30.0905L10.8458 30.3726C10.9393 30.538 11.0353 30.7027 11.1337 30.8667L11.2985 31.1383C11.4074 31.3138 11.519 31.4882 11.6335 31.6616L11.7758 31.8825C11.9332 32.1177 12.0947 32.3507 12.2605 32.5817L12.2746 32.6L12.3562 32.7105C12.5007 32.9086 12.6479 33.1045 12.798 33.2982L12.9644 33.5096C13.098 33.6778 13.2341 33.8451 13.3726 34.0115L13.5286 34.1973C13.7142 34.4171 13.9038 34.6338 14.0975 34.8473L14.109 34.8594L14.1309 34.8834C14.3194 35.0897 14.513 35.2906 14.7087 35.4926L14.894 35.6795C15.0458 35.832 15.1996 35.9829 15.3556 36.1322L15.5445 36.3117C15.7518 36.5074 15.9625 36.6995 16.1768 36.8879L16.1872 36.8958L16.2971 36.99C16.4866 37.154 16.6783 37.3158 16.8723 37.4756L17.1104 37.6651C17.2685 37.7918 17.4283 37.9167 17.5898 38.0398L17.8458 38.2345C18.0237 38.3654 18.2029 38.4939 18.3832 38.6202L18.5795 38.7594L18.6334 38.7977C18.8051 38.9159 18.9804 39.029 19.1557 39.1425L19.3818 39.2933C19.6505 39.4642 19.923 39.631 20.1993 39.7936L20.4254 39.9213C20.6278 40.0382 20.8322 40.1526 21.0388 40.2646L21.3779 40.4405L21.8175 40.6692ZM23.7503 21.4122C24.1789 22.0266 24.6536 22.7572 25.2225 23.2513C25.4287 23.4784 25.6443 23.6993 25.8641 23.9175L26.0337 24.0839C26.2472 24.2915 26.4656 24.4946 26.6889 24.6931L26.7162 24.7162L26.7224 24.723C26.971 24.9407 27.2275 25.15 27.4881 25.3562L27.6624 25.4923C27.9241 25.6927 28.1905 25.8895 28.4637 26.0774L28.4872 26.0947L28.8525 26.3354L29.0263 26.4506C29.2215 26.5751 29.4188 26.6976 29.6203 26.8138L29.704 26.8624C29.8778 26.9626 30.0527 27.0605 30.2289 27.1561L30.4153 27.2539L30.7827 27.4439L30.8381 27.469C31.09 27.5932 31.3454 27.7122 31.6043 27.826L31.7734 27.8956C31.981 27.9842 32.1901 28.0691 32.4009 28.1504L32.6699 28.2488C32.8614 28.32 33.053 28.3849 33.2466 28.4493L33.5078 28.533C33.7831 28.6183 34.0547 28.7261 34.3415 28.7738C49.1117 31.2215 52.5219 19.8484 52.5219 19.8484C49.4477 24.2755 43.495 26.3872 37.1425 24.7387C36.8618 24.6649 36.583 24.5843 36.3062 24.4969L36.0545 24.4157C35.858 24.3522 35.663 24.2851 35.4693 24.2142L35.2056 24.1159C34.9942 24.0347 34.7841 23.95 34.5754 23.862L34.4059 23.7898C34.1461 23.6768 33.8892 23.5573 33.6355 23.4313L33.2487 23.2345L33.0258 23.1199C32.8614 23.0302 32.6985 22.9383 32.537 22.8441L32.4203 22.7776C32.2206 22.6611 32.0231 22.5409 31.8278 22.417L31.6493 22.2972L31.2662 22.0439C30.9954 21.856 30.7293 21.6614 30.4681 21.4603L30.2886 21.3185C27.508 19.1241 25.3041 16.1231 24.2559 12.7208C23.1578 9.19332 23.3944 5.23254 25.2968 2.0186L22.9595 5.3189C20.0988 9.43512 20.2542 14.9466 22.4859 19.3004C22.8595 20.0319 23.2819 20.7374 23.7503 21.4122ZM39.3186 16.3194L39.6855 16.4466L39.8472 16.4978C40.0215 16.5523 40.1937 16.6161 40.3732 16.6496C48.5287 18.2255 50.7415 12.4643 51.3303 11.6165C49.3923 14.4065 46.1359 15.0759 42.1401 14.1061C41.8128 14.0231 41.49 13.9236 41.1729 13.8078C40.7824 13.6689 40.3993 13.5099 40.0252 13.3315C39.3152 12.9898 38.6409 12.5784 38.0123 12.1032C34.4368 9.38958 32.2156 4.21513 34.5488 0L33.2864 1.73965C31.6001 4.22194 31.4342 7.30452 32.6045 10.0448C33.8386 12.9547 36.3674 15.2366 39.3186 16.3194ZM31.4463 49.7102H29.2346C29.1721 49.713 29.1121 49.7356 29.0634 49.7749C29.0147 49.8142 28.9799 49.868 28.964 49.9284L28.179 53.5606L27.3939 57.1927C27.3785 57.2533 27.3438 57.3073 27.2952 57.3467C27.2465 57.386 27.1864 57.4086 27.1239 57.4109H25.5585C24.0099 57.4109 24.1889 56.3396 24.506 54.8721L24.5154 54.8276L24.55 54.6423L24.5563 54.6078L24.6269 54.231L24.7028 53.8275L24.7834 53.4166L25.1403 51.6728L25.4978 49.929C25.5046 49.9023 25.5051 49.8745 25.4992 49.8476C25.4933 49.8208 25.4812 49.7957 25.4638 49.7743C25.4465 49.753 25.4244 49.7361 25.3993 49.7248C25.3742 49.7136 25.3468 49.7084 25.3193 49.7097H23.0495C22.987 49.712 22.9269 49.7345 22.8784 49.774C22.8298 49.8135 22.7955 49.8677 22.7805 49.9284L22.2922 52.2438L21.8044 54.5597L21.8034 54.5628L21.7584 54.7784C21.1963 57.3444 21.3449 59.7922 24.4003 59.8691L24.4893 59.8707H29.2848C29.3473 59.8683 29.4074 59.8458 29.4561 59.8065C29.5048 59.7671 29.5394 59.7131 29.5549 59.6525L30.589 54.791L31.6232 49.929C31.6488 49.8086 31.5693 49.7107 31.4463 49.7102ZM7.76115 49.6846H5.33276C5.26998 49.6868 5.20959 49.7092 5.1605 49.7484C5.1114 49.7876 5.0762 49.8416 5.06009 49.9023L4.82981 50.9186L4.59953 51.935C4.57284 52.0549 4.65082 52.1527 4.77381 52.1527H7.22104C7.28362 52.1501 7.3437 52.1275 7.39249 52.0882C7.44128 52.0489 7.4762 51.9951 7.49214 51.9345L7.71457 50.9186L7.93699 49.9028C7.96264 49.783 7.88414 49.6846 7.76115 49.6846ZM7.0567 52.8477H4.60895C4.54617 52.85 4.48578 52.8724 4.43669 52.9116C4.3876 52.9508 4.3524 53.0047 4.33628 53.0655L3.99244 54.5884L3.64911 56.1109L3.55334 56.5474L3.2231 58.1017L2.89338 59.6566C2.86774 59.7765 2.81488 59.9701 2.77563 60.0863C2.77563 60.0863 2.31821 61.4471 1.5494 61.4314L1.4531 61.4293L0.787911 61.4172C0.725467 61.4189 0.664658 61.4404 0.615325 61.4787C0.565992 61.5171 0.530192 61.5701 0.513148 61.6302L0.259318 62.6974L0.00601249 63.764C-0.0227723 63.8833 0.054685 63.9817 0.176628 63.9838C0.612586 63.989 1.58917 64 2.18005 64C4.10025 64 5.11295 62.936 5.76139 59.8744L6.52079 56.3605L7.23308 53.0649C7.25872 52.9461 7.17917 52.8477 7.0567 52.8477ZM52.1268 52.024L52.0253 51.6048L51.9253 51.1756L51.8746 50.9589C51.6757 50.1859 51.0921 49.7406 49.8246 49.7406L47.8515 49.7385L46.0344 49.7359H43.9896C43.9271 49.738 43.8669 49.7604 43.8183 49.7998C43.7697 49.8392 43.7352 49.8934 43.7201 49.9541L43.6296 50.3812L43.5228 50.8857L43.493 51.0275L42.5724 55.34L41.6984 59.4337C41.6722 59.5541 41.6638 59.7017 41.6785 59.7613C41.6931 59.8215 41.9292 59.8707 42.0516 59.8707H43.8959C44.0189 59.8707 44.1744 59.8487 44.2414 59.8215C44.3084 59.7943 44.4073 59.553 44.4319 59.4332L44.7595 57.8113L45.0876 56.1889L45.0882 56.1863L45.1321 55.9701L45.5299 54.1069L45.881 52.4615C45.8965 52.401 45.9311 52.3471 45.9797 52.3077C46.0282 52.2684 46.0882 52.2458 46.1506 52.2433L51.9541 52.2406C52.0771 52.2417 52.1545 52.1438 52.1268 52.024ZM59.5978 48.2349L59.1508 48.2364H57.2934C57.2253 48.2401 57.1588 48.2586 57.0986 48.2904C57.0383 48.3223 56.9857 48.3669 56.9443 48.4212L52.8365 54.4388C52.7674 54.5403 52.6884 54.5256 52.6612 54.4063L52.3587 53.0806C52.3425 53.0198 52.3072 52.9658 52.258 52.9266C52.2088 52.8874 52.1483 52.8651 52.0855 52.8629H49.4451C49.3221 52.8629 49.2494 52.9592 49.2829 53.077L50.4662 57.2225C50.4997 57.3408 50.5023 57.5344 50.4719 57.6538L49.9564 59.6598C49.9256 59.7791 50.0009 59.8759 50.1239 59.8759H52.7339C52.797 59.8734 52.8578 59.8512 52.9077 59.8124C52.9576 59.7737 52.9942 59.7203 53.0123 59.6598L53.5284 57.6538C53.569 57.5123 53.6332 57.3787 53.7183 57.2586L60.387 48.4081C60.4613 48.3097 60.421 48.2296 60.2985 48.2307L59.5978 48.2349ZM38.6184 53.4261V53.424C38.6093 53.4872 38.5781 53.5451 38.5302 53.5874C38.4824 53.6297 38.4211 53.6535 38.3572 53.6548H35.0093C34.8931 53.6548 34.8345 53.5763 34.8518 53.4789L34.8549 53.4711L34.8528 53.4721L34.8544 53.4611L34.8696 53.4041C35.1893 52.5541 35.8404 51.9962 37.0645 51.9962C38.4431 51.9957 38.7121 52.6688 38.6184 53.4261ZM37.636 49.5616C33.3387 49.5616 32.3203 52.17 31.7488 54.803C31.1778 57.4868 31.2265 59.9953 35.674 59.9953H36.213L36.347 59.9947H36.3784L36.9122 59.9932H36.9217C38.0961 59.9885 39.2742 59.9796 39.7509 59.9759C39.8131 59.973 39.8727 59.95 39.9208 59.9104C39.9688 59.8708 40.0027 59.8166 40.0173 59.7561L40.1974 58.8763L40.2324 58.7052L40.447 57.6553C40.4538 57.6287 40.4543 57.6009 40.4484 57.574C40.4425 57.5472 40.4304 57.5221 40.4131 57.5008C40.3957 57.4796 40.3736 57.4626 40.3485 57.4515C40.3234 57.4403 40.296 57.4352 40.2685 57.4366H36.2706C34.6801 57.4366 34.208 57.0142 34.3823 55.7718H40.7731L40.7725 55.7723L40.7767 55.7718C40.8273 55.7698 40.8763 55.7531 40.9176 55.7239C40.959 55.6946 40.9909 55.654 41.0096 55.6069L41.0248 55.5514L41.0243 55.5519C41.9731 51.9727 41.701 49.5621 37.636 49.5616ZM17.3245 53.4125L17.2638 53.6265L16.7812 55.3374L16.2987 57.0472C16.2787 57.1076 16.2408 57.1605 16.1901 57.199C16.1393 57.2374 16.0781 57.2595 16.0145 57.2623H13.4605C11.5231 57.2623 11.051 55.7466 11.5231 53.5119C11.9946 51.2259 12.9194 49.8049 14.8265 49.661C17.4328 49.4642 17.9541 51.297 17.3245 53.4125ZM19.0767 57.1309C19.0767 57.1309 20.2809 54.2064 20.5541 52.518C20.9273 50.2576 19.7953 46.9783 15.4231 46.9783C11.0761 46.9783 9.18782 50.1085 8.46768 53.5119C7.74754 56.9399 8.69116 59.9455 13.0136 59.9209L16.4238 59.9084L19.6105 59.8969C19.6737 59.8937 19.7344 59.8713 19.7843 59.8325C19.8343 59.7938 19.8712 59.7406 19.89 59.6802L20.4453 57.5627C20.4762 57.4434 20.4013 57.346 20.2783 57.345L19.7461 57.3418L19.2138 57.3387C19.1097 57.3382 19.05 57.2701 19.0626 57.1806L19.0767 57.1309ZM40.5972 55.173C40.5972 55.1923 40.5935 55.2113 40.5862 55.2291C40.5788 55.2469 40.5681 55.2631 40.5545 55.2767C40.5409 55.2904 40.5248 55.3012 40.507 55.3086C40.4892 55.316 40.4702 55.3198 40.4509 55.3198C40.4317 55.3199 40.4126 55.3161 40.3948 55.3088C40.377 55.3014 40.3609 55.2907 40.3472 55.2771C40.3336 55.2635 40.3228 55.2474 40.3154 55.2296C40.308 55.2118 40.3042 55.1928 40.3041 55.1736C40.3041 55.1347 40.3194 55.0974 40.3469 55.0699C40.3743 55.0423 40.4115 55.0268 40.4504 55.0268C40.4893 55.0267 40.5266 55.0421 40.5541 55.0695C40.5816 55.0969 40.5971 55.1342 40.5972 55.173Z" fill="#555E66"/>
</svg>
