<svg width="64" height="64" viewBox="0 0 64 64" fill="none" xmlns="http://www.w3.org/2000/svg">
<path d="M48.5564 63.602C48.0654 63.8413 47.5299 63.9758 46.9841 63.997C46.4383 64.0182 45.8941 63.9256 45.3859 63.7251C44.8699 63.5247 44.4018 63.2177 44.0124 62.8242L18.7867 39.6957L7.79845 48.0797C7.3032 48.4564 6.69151 48.6474 6.0699 48.6195C5.44829 48.5916 4.85616 48.3466 4.39663 47.9271L0.871722 44.7025C0.596995 44.4506 0.377632 44.1445 0.227563 43.8033C0.077495 43.4622 0 43.0936 0 42.7209C0 42.3483 0.077495 41.9797 0.227563 41.6385C0.377632 41.2974 0.596995 40.9912 0.871722 40.7394L10.3978 32.001L0.871722 23.2626C0.596995 23.0108 0.377632 22.7046 0.227563 22.3634C0.077495 22.0223 0 21.6537 0 21.281C0 20.9084 0.077495 20.5398 0.227563 20.1986C0.377632 19.8575 0.596995 19.5513 0.871722 19.2995L4.39663 16.0749C4.85616 15.6554 5.44829 15.4103 6.0699 15.3825C6.69151 15.3546 7.3032 15.5456 7.79845 15.9223L18.7867 24.3063L44.0124 1.17777C44.5935 0.589591 45.344 0.197892 46.1588 0.0575282C46.9737 -0.0828359 47.812 0.035165 48.5564 0.395005L61.7354 6.77036C63.1188 7.43989 64 8.84788 64 10.3937V34.4625H48.0099V17.3992L28.8691 32.001L48.0099 46.6028V34.4625H64V53.6083C64 55.1541 63.1188 56.5621 61.7354 57.2316L48.5564 63.602Z" fill="#555E66"/>
</svg>
