<svg width="64" height="64" viewBox="0 0 64 64" fill="none" xmlns="http://www.w3.org/2000/svg">
<path fill-rule="evenodd" clip-rule="evenodd" d="M11.6364 0C8.55021 0 5.59045 1.22597 3.40821 3.40821C1.22597 5.59045 0 8.55021 0 11.6364V52.3636C0 55.4498 1.22597 58.4095 3.40821 60.5918C5.59045 62.774 8.55021 64 11.6364 64H52.3636C55.4498 64 58.4095 62.774 60.5918 60.5918C62.774 58.4095 64 55.4498 64 52.3636V11.6364C64 8.55021 62.774 5.59045 60.5918 3.40821C58.4095 1.22597 55.4498 0 52.3636 0H11.6364ZM13.0909 17.4545H23.2727C25.9731 17.4545 28.5629 18.5273 30.4724 20.4367C32.3818 22.3462 33.4545 24.936 33.4545 27.6364C33.4545 30.3368 32.3818 32.9265 30.4724 34.836C28.5629 36.7455 25.9731 37.8182 23.2727 37.8182H18.9091V46.5455H13.0909V17.4545ZM18.9091 32H23.2727C24.43 32 25.5399 31.5403 26.3583 30.7219C27.1766 29.9036 27.6364 28.7937 27.6364 27.6364C27.6364 26.4791 27.1766 25.3691 26.3583 24.5508C25.5399 23.7325 24.43 23.2727 23.2727 23.2727H18.9091V32ZM49.2364 30.9353C46.7433 30.3738 44.1018 29.9316 42.1876 30.0742C41.2189 30.144 39.9825 30.4465 41.2276 31.4473C42.2545 32.2676 43.4676 32.7825 44.6836 33.2945C45.9345 33.824 47.1913 34.3564 48.256 35.232C49.7425 36.4538 50.9091 38.2342 50.9091 40.7273C50.9091 43.2145 49.7338 45.12 47.8604 46.2545C46.2051 47.2553 44.2065 47.5404 42.4756 47.584C39.6771 47.6538 36.5935 47.0953 34.2953 46.5309V40.5149C36.4131 41.12 39.7004 41.8327 42.3302 41.7658C43.6975 41.7338 44.5033 41.4836 44.8698 41.2625C45.4516 40.9135 44.9222 40.0233 44.5644 39.7295C43.5404 38.8858 42.3098 38.368 41.0735 37.8473C39.8516 37.3324 38.624 36.8145 37.5884 35.9855C36.1047 34.7927 34.9091 33.0327 34.9091 30.5455C34.9091 28.5236 35.7527 26.8218 37.2945 25.7018C38.6676 24.7127 40.3316 24.3753 41.7542 24.2705C44.1542 24.0931 46.9236 24.5091 49.2364 24.9833V30.9353Z" fill="#555E66"/>
</svg>
