<svg width="64" height="64" viewBox="0 0 64 64" fill="none" xmlns="http://www.w3.org/2000/svg">
<path fill-rule="evenodd" clip-rule="evenodd" d="M11.6364 0C8.55021 0 5.59045 1.22597 3.40821 3.40821C1.22597 5.59045 0 8.55021 0 11.6364V52.3636C0 55.4498 1.22597 58.4095 3.40821 60.5918C5.59045 62.774 8.55021 64 11.6364 64H52.3636C55.4498 64 58.4095 62.774 60.5918 60.5918C62.774 58.4095 64 55.4498 64 52.3636V11.6364C64 8.55021 62.774 5.59045 60.5918 3.40821C58.4095 1.22597 55.4498 0 52.3636 0H11.6364ZM40.7273 16H46.5455V44.48C44.9018 45.0502 40.8611 46.1964 37.8531 46.1964C34.0945 46.1964 27.4327 44.2618 27.4327 35.2407C27.4327 27.424 33.9404 24.4771 40.7273 24.4771V16ZM40.7273 29.4516V41.088C38.3127 41.088 33.4545 40.4684 33.4545 35.2698C33.4545 30.0713 38.3127 29.4516 40.7273 29.4516ZM23.2727 18.9091H17.4545V45.0909H23.2727V18.9091Z" fill="#555E66"/>
</svg>
