<svg width="66" height="64" viewBox="0 0 66 64" fill="none" xmlns="http://www.w3.org/2000/svg">
<path d="M62.5562 5.95355H38.6828V0H34.2325L0 5.96839V58.0465L34.0316 64H38.6828V58.0687H61.0232C62.2883 58.0092 63.6948 58.106 64.7813 57.3321C65.652 56 65.4288 54.3329 65.5031 52.8297V8.84095C65.6594 7.14421 64.253 5.78234 62.5562 5.95355ZM24.826 42.1135C23.5832 42.761 21.7227 42.0837 20.2493 42.1878C19.2595 37.2614 18.106 32.3647 17.2205 27.4159C16.3497 32.2233 15.2186 36.9859 14.2214 41.7637C12.7926 41.6893 11.3564 41.5999 9.92003 41.5033C8.68458 34.9543 7.23353 28.4502 6.07998 21.8865C7.35253 21.827 8.6325 21.7749 9.90506 21.7303C10.6715 26.4708 11.5423 31.1889 12.2122 35.9368C13.2614 31.0697 14.333 26.2028 15.3749 21.3359C16.7889 21.254 18.2028 21.1945 19.6168 21.12C20.6065 26.1433 21.6186 31.1591 22.6902 36.1599C23.5312 30.9954 24.4613 25.8456 25.3619 20.6884C26.8502 20.6363 28.3386 20.5544 29.8195 20.4651C28.1377 27.6763 26.6641 34.947 24.826 42.1135ZM61.9612 54.5344H38.6828V49.8604H58.0315V46.8837H38.6828V43.1628H58.0315V40.1861H38.6828V36.465H58.0315V33.4884H38.6828V29.7674H58.0315V26.7908H38.6828V23.0697H58.0315V20.093H38.6828V16.3721H58.0315V13.3954H38.6828V9.46577H61.9612V54.5344Z" fill="#555E66"/>
</svg>
