<svg width="64" height="64" viewBox="0 0 64 64" fill="none" xmlns="http://www.w3.org/2000/svg">
<path fill-rule="evenodd" clip-rule="evenodd" d="M11.6364 0C8.55021 0 5.59045 1.22597 3.40821 3.40821C1.22597 5.59045 0 8.55021 0 11.6364V52.3636C0 55.4498 1.22597 58.4095 3.40821 60.5918C5.59045 62.774 8.55021 64 11.6364 64H52.3636C55.4498 64 58.4095 62.774 60.5918 60.5918C62.774 58.4095 64 55.4498 64 52.3636V11.6364C64 8.55021 62.774 5.59045 60.5918 3.40821C58.4095 1.22597 55.4498 0 52.3636 0H11.6364ZM17.4545 16H14.5455V45.0909H20.3636V36.3636H24.7273C26.0644 36.3636 27.3884 36.1003 28.6237 35.5886C29.859 35.0769 30.9814 34.3269 31.9269 33.3815C32.8724 32.436 33.6224 31.3135 34.134 30.0782C34.6457 28.8429 34.9091 27.5189 34.9091 26.1818C34.9091 24.8447 34.6457 23.5207 34.134 22.2854C33.6224 21.0501 32.8724 19.9277 31.9269 18.9822C30.9814 18.0367 29.859 17.2867 28.6237 16.775C27.3884 16.2634 26.0644 16 24.7273 16H17.4545ZM24.7273 30.5455H20.3636V21.8182H24.7273C25.8846 21.8182 26.9945 22.2779 27.8128 23.0963C28.6312 23.9146 29.0909 25.0245 29.0909 26.1818C29.0909 27.3391 28.6312 28.449 27.8128 29.2674C26.9945 30.0857 25.8846 30.5455 24.7273 30.5455ZM39.2727 23.2727V45.0909H45.0909V32.7273C45.6303 31.7589 46.397 30.9363 47.3251 30.3302C48.4218 29.6262 50.0044 29.0909 52.3636 29.0909V23.2727C49.5244 23.2727 47.1069 23.8429 45.0909 24.9018V23.2727H39.2727Z" fill="#555E66"/>
</svg>
