<svg width="58" height="64" viewBox="0 0 58 64" fill="none" xmlns="http://www.w3.org/2000/svg">
<path d="M41.6 0L57.6 16V60.7776C57.603 61.1978 57.5231 61.6145 57.365 62.0039C57.2069 62.3933 56.9737 62.7477 56.6786 63.0469C56.3835 63.3462 56.0324 63.5843 55.6453 63.7479C55.2582 63.9114 54.8426 63.9971 54.4224 64H3.1776C2.33721 63.9941 1.53286 63.6579 0.938297 63.064C0.343737 62.47 0.00670288 61.666 0 60.8256V3.1744C0 1.4208 1.4304 0 3.1968 0H41.6ZM20.2656 40.5344H16V51.2H41.6V46.9344L20.2656 46.9312V40.5344ZM28.8 39.4656C28.3798 39.4656 27.9637 39.5484 27.5754 39.7092C27.1872 39.87 26.8344 40.1057 26.5373 40.4029C26.2401 40.7 26.0044 41.0528 25.8436 41.441C25.6828 41.8293 25.6 42.2454 25.6 42.6656C25.6 43.0858 25.6828 43.5019 25.8436 43.8902C26.0044 44.2784 26.2401 44.6312 26.5373 44.9283C26.8344 45.2255 27.1872 45.4612 27.5754 45.622C27.9637 45.7828 28.3798 45.8656 28.8 45.8656C29.6487 45.8656 30.4626 45.5285 31.0627 44.9283C31.6629 44.3282 32 43.5143 32 42.6656C32 41.8169 31.6629 41.003 31.0627 40.4029C30.4626 39.8027 29.6487 39.4656 28.8 39.4656ZM28.8 22.4C26.6783 22.4 24.6434 23.2429 23.1431 24.7431C21.6429 26.2434 20.8 28.2783 20.8 30.4C20.8 32.5217 21.6429 34.5566 23.1431 36.0569C24.6434 37.5571 26.6783 38.4 28.8 38.4C30.9217 38.4 32.9566 37.5571 34.4569 36.0569C35.9571 34.5566 36.8 32.5217 36.8 30.4C36.8 28.2783 35.9571 26.2434 34.4569 24.7431C32.9566 23.2429 30.9217 22.4 28.8 22.4ZM28.8 26.6656C29.7904 26.6656 30.7403 27.059 31.4406 27.7594C32.141 28.4597 32.5344 29.4096 32.5344 30.4C32.5344 31.3904 32.141 32.3403 31.4406 33.0406C30.7403 33.741 29.7904 34.1344 28.8 34.1344C27.8096 34.1344 26.8597 33.741 26.1594 33.0406C25.459 32.3403 25.0656 31.3904 25.0656 30.4C25.0656 29.4096 25.459 28.4597 26.1594 27.7594C26.8597 27.059 27.8096 26.6656 28.8 26.6656ZM30.9344 12.8H26.6656V17.0656H16V21.3344H41.6V17.0656H30.9312L30.9344 12.8Z" fill="#555E66"/>
</svg>
