<svg width="46" height="64" viewBox="0 0 46 64" fill="none" xmlns="http://www.w3.org/2000/svg">
<path d="M0 12.7446L4.11346 58.8767L22.5708 64L41.0795 58.87L45.1976 12.7446H0ZM35.2823 38.4827L34.0843 49.6429L34.0888 50.5988L22.5988 53.8079L22.5896 53.816L11.0078 50.6426L10.2243 41.8024H15.9038L16.3065 46.2712L22.6008 47.9509L22.5988 47.9586V47.9423L28.9171 46.1606L29.5839 38.7437H16.3769L16.2637 37.5431L16.0057 34.6644L15.8706 33.1361H30.0865L30.6034 27.5284H8.95132L8.83764 26.2086L8.57969 23.1346L8.4446 21.411H36.7871L36.651 23.1106L35.2823 38.4827ZM35.3434 6.81787L31.699 2.54893H35.3434V0H27.1869V2.22419L31.464 6.11743H27.1869V8.66635H35.3434V6.81787ZM25.6575 6.81787L22.1874 2.54893H25.6575V0H18.0107V2.22419L21.9529 6.11743H18.0107V8.66635H25.6575V6.81787ZM16.4814 6.11743H12.4031V2.54893H16.4814V0H9.34437V8.66635H16.4814V6.11743Z" fill="#555E66"/>
</svg>
