<svg width="64" height="64" viewBox="0 0 64 64" fill="none" xmlns="http://www.w3.org/2000/svg">
<mask id="mask0_45_24" style="mask-type:luminance" maskUnits="userSpaceOnUse" x="0" y="0" width="64" height="64">
<path d="M0 0H64V64H0V0Z" fill="white"/>
</mask>
<g mask="url(#mask0_45_24)">
<path d="M13.5469 0H16.4322V2.85067H19.0722V0H21.9575V8.62933H19.0722V5.74133H16.4322V8.62933H13.5495L13.5469 0ZM25.7495 2.86133H23.2109V0H31.1762V2.86133H28.6349V8.62933H25.7495V2.86133ZM32.4402 0H35.4482L37.2989 3.032L39.1469 0H42.1549V8.62933H39.2829V4.352L37.2989 7.42133H37.2482L35.2615 4.35467V8.62933H32.4402V0ZM43.5895 0H46.4775V5.77867H50.5309V8.632H43.5895V0Z" fill="#555E66"/>
<path fill-rule="evenodd" clip-rule="evenodd" d="M13.456 58.8581L8 12.5781H56L50.5413 58.8528L31.9733 63.9995L13.456 58.8581ZM24.488 33.5248L23.9707 27.7115H45.6907L46.1973 22.0368H17.7707L19.3013 39.2021H38.9733L38.3147 46.5621L31.984 48.2741H31.9787L25.6587 46.5675L25.2533 42.0421H19.552L20.3467 50.9541L31.9733 54.1808L43.6187 50.9541L45.0373 35.0501L45.176 33.5275L24.488 33.5248Z" fill="#555E66"/>
</g>
</svg>
