<svg width="64" height="64" viewBox="0 0 64 64" fill="none" xmlns="http://www.w3.org/2000/svg">
<path fill-rule="evenodd" clip-rule="evenodd" d="M11.6364 0C8.55021 0 5.59045 1.22597 3.40821 3.40821C1.22597 5.59045 0 8.55021 0 11.6364V52.3636C0 55.4498 1.22597 58.4095 3.40821 60.5918C5.59045 62.774 8.55021 64 11.6364 64H52.3636C55.4498 64 58.4095 62.774 60.5918 60.5918C62.774 58.4095 64 55.4498 64 52.3636V11.6364C64 8.55021 62.774 5.59045 60.5918 3.40821C58.4095 1.22597 55.4498 0 52.3636 0H11.6364ZM7.30764 45.0095L16.5993 18.4553V16.5353H24.0175L34.2982 45.0095H27.9273L25.5069 38.3564H15.4444L13.1898 45.0095H7.30764ZM17.0385 32.6953H23.8545L20.4509 21.5913L17.0385 32.6953ZM53.3207 39.5636V44.5091C52.3113 44.9164 49.5156 45.7222 46.3942 45.7222C42.4902 45.7222 35.3978 43.8516 35.3978 34.1207C35.3978 25.5447 41.7222 23.072 46.3942 23.072C50.5716 23.072 55.2436 26.1498 55.2436 32.032V35.8807H41.7222C42.1062 37.4371 43.7324 40.5527 47.1622 40.5527C50.592 40.5527 52.6982 39.8924 53.3207 39.5636ZM41.7745 31.7585H49.6378C49.5447 30.4029 48.6487 27.6887 45.7891 27.6887C42.9295 27.6887 41.92 30.4 41.7745 31.7585Z" fill="#555E66"/>
</svg>
