<svg width="66" height="64" viewBox="0 0 66 64" fill="none" xmlns="http://www.w3.org/2000/svg">
<path d="M62.5486 6.69773H38.6826V0H34.463L0 5.96857V58.0465L34.0539 64H38.6826V56.5581H61.0156C62.2881 56.4986 63.7022 56.6252 64.7885 55.8363C65.6518 54.5043 65.4426 52.8372 65.5171 51.334V9.61501C65.6882 7.9034 64.2602 6.53403 62.5486 6.69773ZM21.8268 34.4707C20.1376 35.3339 18.2026 35.2149 16.3646 35.1553L16.3572 43.8845L11.9292 43.5125L11.9366 19.6615C15.9777 19.8549 20.8743 18.0615 24.2232 21.0902C27.4306 24.9824 26.5822 32.1414 21.8268 34.4707ZM61.961 53.0459H38.6826V48.372H56.543V45.3955H38.6826V41.6745H56.543V38.6977H38.69C38.69 38.6977 38.6826 35.7806 38.6752 34.322C41.6222 35.2373 44.9785 35.215 47.6128 33.4439C50.4631 31.7545 51.9514 28.5322 52.197 25.3174H42.4036V15.5983L38.6826 16.35V10.2099H61.961V53.0459ZM43.8913 14.0428C49.0634 14.2809 53.4175 18.6532 53.6928 23.8104H43.8913V14.0428ZM16.3572 23.6874C17.8232 23.6205 19.639 23.3526 20.6287 24.7293C21.4771 26.188 21.4325 28.1079 20.7255 29.6112C19.8771 31.1441 17.957 30.9954 16.4762 31.1739C16.32 28.681 16.3348 26.188 16.3572 23.6874Z" fill="#555E66"/>
</svg>
