<svg width="66" height="64" viewBox="0 0 66 64" fill="none" xmlns="http://www.w3.org/2000/svg">
<path d="M58.0317 34.2326H47.6131V29.0232H58.0317V34.2326ZM58.0317 37.2093H47.6131V42.4187H58.0317V37.2093ZM58.0317 12.6511H47.6131V17.8604H58.0317V12.6511ZM58.0317 20.8372H47.6131V26.0464H58.0317V20.8372ZM58.0317 45.3953H47.6131V50.6047H58.0317V45.3953ZM65.2279 55.6651C64.9303 57.2131 63.0698 57.2502 61.827 57.3024H38.6829V64H34.0614L0 58.0464V5.96097L34.2624 0H38.6829V5.93116H61.0308C62.2885 5.98324 63.6727 5.89393 64.7666 6.64551C65.5331 7.74691 65.4588 9.14606 65.5108 10.4111L65.481 49.1535C65.4439 51.319 65.6819 53.5294 65.2279 55.6651ZM27.2892 43.9889C25.2354 39.8215 23.1443 35.6837 21.0977 31.5162C23.1219 27.4604 25.1164 23.3898 27.1033 19.319C25.414 19.4009 23.7246 19.5051 22.0429 19.6242C20.7851 22.6827 19.319 25.6595 18.3368 28.8223C17.4214 25.8381 16.2084 22.9655 15.0996 20.0558C13.4624 20.1451 11.8251 20.2418 10.188 20.3386C11.9144 24.1489 13.7527 27.9069 15.427 31.7395C13.4549 35.4604 11.6094 39.2336 9.69676 42.9768C11.3265 43.0437 12.9563 43.1107 14.586 43.133C15.747 40.1712 17.1907 37.321 18.2028 34.2995C19.1107 37.5442 20.6511 40.5433 21.9163 43.6465C23.7098 43.7731 25.4957 43.8847 27.2892 43.9889ZM61.9615 9.46555H38.6829V12.6511H44.6364V17.8604H38.6829V20.8372H44.6364V26.0464H38.6829V29.0232H44.6364V34.2326H38.6829V37.2093H44.6364V42.4187H38.6829V45.3953H44.6364V50.6047H38.6829V54.0462H61.9615V9.46555Z" fill="#555E66"/>
</svg>
