<svg width="160" height="24" viewBox="0 0 160 24" fill="none" xmlns="http://www.w3.org/2000/svg">
<path d="M42.0198 14.8157C41.9525 14.7488 41.9973 14.6146 42.1095 14.6146H42.5582H42.5807C46.417 14.2347 49.6252 11.7543 49.6252 7.37436C49.6252 2.32404 45.542 0 40.8531 0H18.9344C18.6427 0 18.396 0.24581 18.396 0.536316V22.9276C18.396 23.2181 18.6427 23.4638 18.9344 23.4638H25.9341C26.2257 23.4638 26.4725 23.2181 26.4725 22.9276V15.7766C26.4725 15.4861 26.7192 15.2404 27.0109 15.2404H31.5652C32.1933 15.2404 32.7991 15.5086 33.2254 15.9778L39.709 23.2627C39.8436 23.3298 39.9782 23.3745 40.1128 23.4415H49.356C49.827 23.4415 50.0738 22.8828 49.7374 22.5477L42.0198 14.8157ZM39.1032 10.0112H26.9884C26.6968 10.0112 26.45 9.76543 26.45 9.47492V6.07825C26.45 5.78776 26.6968 5.54193 26.9884 5.54193H38.9239C40.6288 5.54193 41.7506 6.36876 41.7506 7.70955C41.7506 9.22911 40.7185 10.0112 39.1032 10.0112Z" fill="#555E66"/>
<path d="M130.501 0.0229492H123.501C123.21 0.0229492 122.963 0.268759 122.963 0.559265V15.4198C122.963 15.7103 123.21 15.956 123.501 15.956H130.501C130.793 15.956 131.039 15.7103 131.039 15.4198V0.559265C131.017 0.268759 130.793 0.0229492 130.501 0.0229492Z" fill="#555E66"/>
<path d="M130.501 19.1055H123.501C123.21 19.1055 122.963 19.3513 122.963 19.6418V22.9491C122.963 23.2396 123.21 23.4854 123.501 23.4854H130.501C130.793 23.4854 131.039 23.2396 131.039 22.9491V19.6418C131.017 19.3513 130.793 19.1055 130.501 19.1055Z" fill="#555E66"/>
<path d="M159.307 22.7717L150.31 10.9057C150.109 10.6375 150.131 10.28 150.356 10.0342L158.859 0.738033C159.106 0.469876 158.904 0.0452971 158.545 0.0452971H151.185C150.984 0.0452971 150.805 0.134683 150.67 0.268762L142.459 9.25206C142.437 9.27441 142.392 9.29675 142.347 9.29675H142.055C141.988 9.29675 141.92 9.22971 141.92 9.16267V0.514569C141.92 0.24641 141.696 0.0229492 141.427 0.0229492H134.697C134.427 0.0229492 134.203 0.24641 134.203 0.514569V22.9505C134.203 23.1963 134.405 23.3974 134.652 23.3974H141.449C141.696 23.3974 141.898 23.1963 141.898 22.9505V18.7717C141.898 18.5929 141.965 18.4364 142.078 18.3024L145.061 15.1293C145.061 15.1293 145.084 15.0845 145.151 15.0845C145.218 15.0845 145.51 15.0845 145.555 15.0845C145.6 15.0845 145.645 15.1293 145.645 15.1293L151.657 23.1293C151.792 23.308 151.994 23.3974 152.219 23.3974H158.971C159.329 23.3974 159.51 23.0176 159.307 22.7717Z" fill="#555E66"/>
<path d="M60.5055 5.38611H67.3481C67.6397 5.38611 67.8865 5.1403 67.8865 4.8498V0.559265C67.8865 0.268759 67.6397 0.0229492 67.3481 0.0229492H53.1917C52.9001 0.0229492 52.6533 0.268759 52.6533 0.559265V22.9505C52.6533 23.241 52.9001 23.4868 53.1917 23.4868H67.3481C67.6397 23.4868 67.8865 23.241 67.8865 22.9505V18.66C67.8865 18.3695 67.6397 18.1236 67.3481 18.1236H60.4606C60.1689 18.1236 59.9222 17.8779 59.9222 17.5872V14.794C59.9222 14.4811 60.1914 14.213 60.5055 14.213H67.3481C67.6397 14.213 67.8865 13.9672 67.8865 13.6767V9.47552C67.8865 9.18503 67.6397 8.93921 67.3481 8.93921H60.5055C60.1914 8.93921 59.9222 8.67104 59.9222 8.35819V5.94478C59.9222 5.63193 60.1914 5.38611 60.5055 5.38611Z" fill="#555E66"/>
<path d="M78.903 5.38611H85.7455C86.0372 5.38611 86.284 5.1403 86.284 4.8498V0.559265C86.284 0.268759 86.0372 0.0229492 85.7455 0.0229492H71.5892C71.2975 0.0229492 71.0508 0.268759 71.0508 0.559265V22.9505C71.0508 23.241 71.2975 23.4868 71.5892 23.4868H85.7455C86.0372 23.4868 86.284 23.241 86.284 22.9505V18.66C86.284 18.3695 86.0372 18.1236 85.7455 18.1236H78.858C78.5664 18.1236 78.3196 17.8779 78.3196 17.5872V14.794C78.3196 14.4811 78.5888 14.213 78.903 14.213H85.7455C86.0372 14.213 86.284 13.9672 86.284 13.6767V9.47552C86.284 9.18503 86.0372 8.93921 85.7455 8.93921H78.903C78.5888 8.93921 78.3196 8.67104 78.3196 8.35819V5.94478C78.3196 5.63193 78.5888 5.38611 78.903 5.38611Z" fill="#555E66"/>
<path d="M7.85216 5.38611H14.6948C14.9865 5.38611 15.2332 5.1403 15.2332 4.8498V0.559265C15.2332 0.268759 14.9865 0.0229492 14.6948 0.0229492H0.538439C0.246787 0.0229492 0 0.268759 0 0.559265V22.9505C0 23.241 0.246787 23.4868 0.538439 23.4868H6.73043C7.02209 23.4868 7.26887 23.241 7.26887 22.9505V14.8163C7.26887 14.5035 7.53808 14.2353 7.85216 14.2353H14.6948C14.9865 14.2353 15.2332 13.9895 15.2332 13.699V9.49788C15.2332 9.20737 14.9865 8.96155 14.6948 8.96155H7.85216C7.53808 8.96155 7.26887 8.6934 7.26887 8.38055V5.96712C7.26887 5.63193 7.51565 5.38611 7.85216 5.38611Z" fill="#555E66"/>
<path d="M111.186 0.0229492H89.985C89.6933 0.0229492 89.4465 0.268759 89.4465 0.559265V22.9505C89.4465 23.241 89.6933 23.4868 89.985 23.4868H96.9846C97.2763 23.4868 97.523 23.241 97.523 22.9505V15.5538C97.523 15.3973 97.6352 15.2856 97.7922 15.2856H98.8018H111.208C116.593 15.2856 120.676 12.4923 120.676 7.55372C120.676 2.43637 116.593 0.0229492 111.186 0.0229492ZM110.176 10.0118H98.0614C97.7698 10.0118 97.523 9.76603 97.523 9.47552V6.07885C97.523 5.78836 97.7698 5.54253 98.0614 5.54253H109.997C111.702 5.54253 112.824 6.36936 112.824 7.71015C112.824 9.22971 111.769 10.0118 110.176 10.0118Z" fill="#555E66"/>
</svg>
