<svg width="64" height="64" viewBox="0 0 64 64" fill="none" xmlns="http://www.w3.org/2000/svg">
<path d="M64 9.14286C64 4.1 59.9 0 54.8571 0H9.14286C4.1 0 0 4.1 0 9.14286V54.8571C0 59.9 4.1 64 9.14286 64H54.8571C59.9 64 64 59.9 64 54.8571V9.14286ZM25.8429 58.9857C21.0286 58.9857 18.2429 56.5 16.8143 53.4857L21.7143 50.5286C22.6571 52.2 23.5143 53.6143 25.5857 53.6143C27.5571 53.6143 28.8143 52.8429 28.8143 49.8286V29.3857H34.8286V49.9143C34.8286 56.1429 31.1714 58.9857 25.8429 58.9857ZM38.1 52.8429L43 50.0143C44.2857 52.1143 45.9714 53.6714 48.9286 53.6714C51.4143 53.6714 53.0143 52.4286 53.0143 50.7C53.0143 48.6429 51.3857 47.9143 48.6286 46.7L47.1286 46.0571C42.7857 44.2143 39.9143 41.8857 39.9143 36.9857C39.9143 32.4714 43.3571 29.0429 48.7143 29.0429C52.5429 29.0429 55.2857 30.3714 57.2571 33.8571L52.5714 36.8571C51.5429 35.0143 50.4286 34.2857 48.7 34.2857C46.9429 34.2857 45.8286 35.4 45.8286 36.8571C45.8286 38.6571 46.9429 39.3857 49.5286 40.5143L51.0286 41.1571C56.1429 43.3429 59.0143 45.5857 59.0143 50.6143C59.0143 56.0143 54.7571 58.9857 49.0571 58.9857C43.4714 58.9857 39.8571 56.3286 38.1 52.8429Z" fill="#555E66"/>
</svg>
